<svg id="Layer_1" data-name="Layer 1" xmlns="http://www.w3.org/2000/svg" viewBox="0 0 1535 500"><defs><style>.cls-1{fill:none;}</style></defs><path d="M1325.74,164.09l.6.33a2.47,2.47,0,0,1,0,4.34l-.6.33a36.43,36.43,0,0,0-14.47,14.47l-.33.61a2.49,2.49,0,0,1-4.35,0l-.33-.61a36.43,36.43,0,0,0-14.47-14.47l-.6-.33a2.47,2.47,0,0,1,0-4.34l.6-.33a36.39,36.39,0,0,0,14.47-14.48l.33-.6a2.48,2.48,0,0,1,4.35,0l.33.6A36.39,36.39,0,0,0,1325.74,164.09Z"/><path d="M1396.73,209.79l.33.18a2.49,2.49,0,0,1,0,4.36l-.33.18a69.89,69.89,0,0,0-27.8,27.8l-.19.34a2.48,2.48,0,0,1-4.35,0l-.19-.34a70,70,0,0,0-27.8-27.8l-.34-.18a2.49,2.49,0,0,1,0-4.36l.34-.18A69.92,69.92,0,0,0,1364.2,182l.19-.33a2.48,2.48,0,0,1,4.35,0l.19.33A69.85,69.85,0,0,0,1396.73,209.79Z"/><polygon points="168.44 331.78 200.08 331.78 200.08 271.99 267.09 271.99 267.09 243.14 200.08 243.14 200.08 196.84 269.15 196.84 279.42 168.22 168.44 168.22 168.44 331.78"/><polygon points="431.32 168.22 399.68 168.22 399.68 331.78 510.2 331.78 499.93 303.16 431.32 303.16 431.32 168.22"/><path d="M1039.7,264.77l-39.85-95.12a6.1,6.1,0,0,0-5.64-3.76h0a6.11,6.11,0,0,0-5.64,3.76l-39.84,95.12-32.34-96.55H882.88l56.58,162a5.8,5.8,0,0,0,5.48,3.89h.22a5.82,5.82,0,0,0,5.32-3.48l43.84-100.06,43.85,100.06a5.83,5.83,0,0,0,5.32,3.48h0a5.81,5.81,0,0,0,5.48-3.89l56.8-162H1072Z"/><path d="M1226,166.59h0a6.43,6.43,0,0,0-6.43,6.44V331.78h31.64V228.94l104.45,102.85a6.42,6.42,0,0,0,4.52,1.85h0a6.43,6.43,0,0,0,6.43-6.43V305.78a8,8,0,0,0-2.37-5.67L1230.47,168.44A6.42,6.42,0,0,0,1226,166.59Z"/><path d="M695,165.89A84.11,84.11,0,1,0,779.14,250,84.11,84.11,0,0,0,695,165.89ZM695,305a55,55,0,1,1,55-55A55,55,0,0,1,695,305Z"/><rect class="cls-1" width="1535" height="500"/></svg>